<svg width="40" height="41" viewBox="0 0 40 41" fill="none" xmlns="http://www.w3.org/2000/svg">
<path d="M0 20.5C0 31.5457 8.95431 40.5 20 40.5C31.0457 40.5 40 31.5457 40 20.5C40 9.45431 31.0457 0.5 20 0.5C8.95431 0.5 0 9.45431 0 20.5Z" fill="#1877F2"/>
<path d="M30 20.5C30 15 25.5 10.5 20 10.5C14.5 10.5 10 15 10 20.5C10 25.5 13.625 29.625 18.375 30.375V23.375H15.875V20.5H18.375V18.25C18.375 15.75 19.875 14.375 22.125 14.375C23.25 14.375 24.375 14.625 24.375 14.625V17.125H23.125C21.875 17.125 21.5 17.875 21.5 18.625V20.5H24.25L23.75 23.375H21.375V30.5C26.375 29.75 30 25.5 30 20.5Z" fill="white"/>
</svg>
