<svg width="40" height="41" viewBox="0 0 40 41" fill="none" xmlns="http://www.w3.org/2000/svg">
<path d="M0 20.5C0 31.5457 8.95431 40.5 20 40.5C31.0457 40.5 40 31.5457 40 20.5C40 9.45431 31.0457 0.5 20 0.5C8.95431 0.5 0 9.45431 0 20.5Z" fill="#F00073"/>
<path d="M20 12C22.75 12 23.125 12 24.25 12C25.25 12 25.75 12.25 26.125 12.375C26.625 12.625 27 12.75 27.375 13.125C27.75 13.5 28 13.875 28.125 14.375C28.25 14.75 28.375 15.25 28.5 16.25C28.5 17.375 28.5 17.625 28.5 20.5C28.5 23.375 28.5 23.625 28.5 24.75C28.5 25.75 28.25 26.25 28.125 26.625C27.875 27.125 27.75 27.5 27.375 27.875C27 28.25 26.625 28.5 26.125 28.625C25.75 28.75 25.25 28.875 24.25 29C23.125 29 22.875 29 20 29C17.125 29 16.875 29 15.75 29C14.75 29 14.25 28.75 13.875 28.625C13.375 28.375 13 28.25 12.625 27.875C12.25 27.5 12 27.125 11.875 26.625C11.75 26.25 11.625 25.75 11.5 24.75C11.5 23.625 11.5 23.375 11.5 20.5C11.5 17.625 11.5 17.375 11.5 16.25C11.5 15.25 11.75 14.75 11.875 14.375C12.125 13.875 12.25 13.5 12.625 13.125C13 12.75 13.375 12.5 13.875 12.375C14.25 12.25 14.75 12.125 15.75 12C16.875 12 17.25 12 20 12ZM20 10.125C17.125 10.125 16.875 10.125 15.75 10.125C14.625 10.125 13.875 10.375 13.25 10.625C12.625 10.875 12 11.25 11.375 11.875C10.75 12.5 10.5 13 10.125 13.75C9.875 14.375 9.75 15.125 9.625 16.25C9.625 17.375 9.625 17.75 9.625 20.5C9.625 23.375 9.625 23.625 9.625 24.75C9.625 25.875 9.875 26.625 10.125 27.25C10.375 27.875 10.75 28.5 11.375 29.125C12 29.75 12.5 30 13.25 30.375C13.875 30.625 14.625 30.75 15.75 30.875C16.875 30.875 17.25 30.875 20 30.875C22.75 30.875 23.125 30.875 24.25 30.875C25.375 30.875 26.125 30.625 26.75 30.375C27.375 30.125 28 29.75 28.625 29.125C29.25 28.5 29.5 28 29.875 27.25C30.125 26.625 30.25 25.875 30.375 24.75C30.375 23.625 30.375 23.25 30.375 20.5C30.375 17.75 30.375 17.375 30.375 16.25C30.375 15.125 30.125 14.375 29.875 13.75C29.625 13.125 29.25 12.5 28.625 11.875C28 11.25 27.5 11 26.75 10.625C26.125 10.375 25.375 10.25 24.25 10.125C23.125 10.125 22.875 10.125 20 10.125Z" fill="white"/>
<path d="M20 15.125C17 15.125 14.625 17.5 14.625 20.5C14.625 23.5 17 25.875 20 25.875C23 25.875 25.375 23.5 25.375 20.5C25.375 17.5 23 15.125 20 15.125ZM20 24C18.125 24 16.5 22.5 16.5 20.5C16.5 18.625 18 17 20 17C21.875 17 23.5 18.5 23.5 20.5C23.5 22.375 21.875 24 20 24Z" fill="white"/>
<path d="M25.5 16.25C26.1904 16.25 26.75 15.6904 26.75 15C26.75 14.3096 26.1904 13.75 25.5 13.75C24.8096 13.75 24.25 14.3096 24.25 15C24.25 15.6904 24.8096 16.25 25.5 16.25Z" fill="white"/>
</svg>
