<svg width="40" height="41" viewBox="0 0 40 41" fill="none" xmlns="http://www.w3.org/2000/svg">
<path d="M0 20.5C0 31.5457 8.95431 40.5 20 40.5C31.0457 40.5 40 31.5457 40 20.5C40 9.45431 31.0457 0.5 20 0.5C8.95431 0.5 0 9.45431 0 20.5Z" fill="#1DA1F2"/>
<path d="M30 14.25C29.25 14.625 28.5 14.75 27.625 14.875C28.5 14.375 29.125 13.625 29.375 12.625C28.625 13.125 27.75 13.375 26.75 13.625C26 12.875 24.875 12.375 23.75 12.375C21.125 12.375 19.125 14.875 19.75 17.375C16.375 17.25 13.375 15.625 11.25 13.125C10.125 15 10.75 17.375 12.5 18.625C11.875 18.625 11.25 18.375 10.625 18.125C10.625 20 12 21.75 13.875 22.25C13.25 22.375 12.625 22.5 12 22.375C12.5 24 14 25.25 15.875 25.25C14.375 26.375 12.125 27 10 26.75C11.875 27.875 14 28.625 16.25 28.625C23.875 28.625 28.125 22.25 27.875 16.375C28.75 15.875 29.5 15.125 30 14.25Z" fill="white"/>
</svg>
